<?xml version="1.0" encoding="UTF-8"?>
<svg id="Layer_1" xmlns="http://www.w3.org/2000/svg" version="1.1" xmlns:xlink="http://www.w3.org/1999/xlink" viewBox="0 0 122 44">
  <!-- Generator: Adobe Illustrator 29.8.1, SVG Export Plug-In . SVG Version: 2.1.1 Build 2)  -->
  <defs>
    <style>
      .st0 {
        fill: url(#linear-gradient2);
      }

      .st1 {
        fill-opacity: .2;
      }

      .st2, .st3, .st4 {
        fill: #fff;
      }

      .st2, .st4 {
        fill-opacity: .2;
      }

      .st5 {
        fill: silver;
        fill-opacity: 0;
      }

      .st6 {
        fill: url(#linear-gradient1);
      }

      .st7 {
        fill-opacity: .2;
      }

      .st8 {
        fill: url(#linear-gradient4);
      }

      .st4 {
        fill-rule: evenodd;
      }

      .st9 {
        fill: url(#linear-gradient5);
      }

      .st10 {
        fill: url(#linear-gradient3);
      }

      .st11 {
        fill-opacity: .1;
      }

      .st12 {
        fill: url(#linear-gradient);
      }
    </style>
    <linearGradient id="linear-gradient" x1="0" y1="32.9" x2="47" y2="32.9" gradientTransform="translate(0 43.9) scale(1 -1)" gradientUnits="userSpaceOnUse">
      <stop offset="0" stop-color="#6366f1"/>
      <stop offset=".5" stop-color="#8b5cf6"/>
      <stop offset="1" stop-color="#d946ef"/>
    </linearGradient>
    <linearGradient id="linear-gradient1" x1="0" y1="28.8" x2="47" y2="28.8" gradientTransform="translate(0 43.9) scale(1 -1)" gradientUnits="userSpaceOnUse">
      <stop offset="0" stop-color="#6366f1"/>
      <stop offset=".5" stop-color="#8b5cf6"/>
      <stop offset="1" stop-color="#d946ef"/>
    </linearGradient>
    <linearGradient id="linear-gradient2" x1="0" y1="8.8" x2="47" y2="8.8" gradientTransform="translate(0 43.9) scale(1 -1)" gradientUnits="userSpaceOnUse">
      <stop offset="0" stop-color="#6366f1"/>
      <stop offset=".5" stop-color="#8b5cf6"/>
      <stop offset="1" stop-color="#d946ef"/>
    </linearGradient>
    <linearGradient id="linear-gradient3" x1="0" y1="24.2" x2="47" y2="24.2" gradientTransform="translate(0 43.9) scale(1 -1)" gradientUnits="userSpaceOnUse">
      <stop offset="0" stop-color="#6366f1"/>
      <stop offset=".5" stop-color="#8b5cf6"/>
      <stop offset="1" stop-color="#d946ef"/>
    </linearGradient>
    <linearGradient id="linear-gradient4" x1="0" y1="8.6" x2="47" y2="8.6" gradientTransform="translate(0 43.9) scale(1 -1)" gradientUnits="userSpaceOnUse">
      <stop offset="0" stop-color="#6366f1"/>
      <stop offset=".5" stop-color="#8b5cf6"/>
      <stop offset="1" stop-color="#d946ef"/>
    </linearGradient>
    <linearGradient id="linear-gradient5" x1="0" y1="22.7" x2="47" y2="22.7" gradientTransform="translate(0 43.9) scale(1 -1)" gradientUnits="userSpaceOnUse">
      <stop offset="0" stop-color="#6366f1"/>
      <stop offset=".5" stop-color="#8b5cf6"/>
      <stop offset="1" stop-color="#d946ef"/>
    </linearGradient>
  </defs>
  <path class="st3" d="M60.7,29.6c.8,0,1.5,0,2.2-.3.7-.2,1.3-.5,1.9-.9.6-.4,1-.9,1.3-1.5.3-.6.5-1.3.5-2.1s-.1-1.4-.4-1.8c-.3-.5-.6-.9-1.1-1.2-.4-.3-.9-.5-1.3-.7-.5-.2-.9-.3-1.3-.4l-2.6-.7c-.3,0-.6-.2-.9-.3-.3-.1-.5-.3-.7-.5-.2-.2-.3-.5-.3-.8s.1-.6.4-.9c.2-.3.6-.4.9-.6.4-.1.8-.2,1.2-.2.7,0,1.3.2,1.8.6.6.4.9.9,1.1,1.6l3-.5c-.4-1.4-1-2.4-2.1-3.2-1-.7-2.3-1.1-3.8-1.1-1,0-1.9.1-2.8.5-.8.3-1.5.8-2,1.5s-.7,1.5-.7,2.5.1,1.3.3,1.7c.2.5.5.8.9,1.1.4.3.7.5,1.1.6.4.2.7.3,1,.3l3.8,1.1c.6.2,1,.4,1.1.6.2.3.3.5.3.8s-.1.8-.4,1c-.3.3-.6.5-1.1.6-.4.1-.9.2-1.3.2-.8,0-1.5-.2-2.2-.7-.6-.5-1.1-1.1-1.3-2l-2.9.4c.2,1,.5,1.9,1.1,2.6.6.7,1.3,1.3,2.2,1.7.9.4,1.9.6,3,.6Z"/>
  <path class="st3" d="M69,16.8h2.8v-2.5h-2.8v2.5ZM69,29.3h2.8v-11.1h-2.8v11.1Z"/>
  <path class="st3" d="M75.1,29.3h2.8v-15h-2.8v15Z"/>
  <path class="st3" d="M81.2,16.8h2.8v-2.5h-2.8v2.5ZM81.2,29.3h2.8v-11.1h-2.8v11.1Z"/>
  <path class="st3" d="M91.9,29.6c1.3,0,2.4-.3,3.2-1,.9-.6,1.5-1.5,1.8-2.7l-2.8-.6c-.2.5-.4.9-.7,1.2-.3.3-.8.4-1.4.4s-1.5-.3-1.9-.9c-.4-.6-.6-1.4-.6-2.3s.2-1.7.6-2.3c.4-.6,1.1-.9,1.9-.9s1,.2,1.4.5c.4.3.7.8.9,1.3l2.8-.7c-.2-1.1-.8-2-1.7-2.7-.9-.7-2-1-3.3-1s-2.1.3-2.9.8c-.8.5-1.5,1.2-1.9,2.1-.5.9-.7,1.9-.7,3s.2,2.1.7,3c.4.9,1.1,1.6,1.9,2.1.8.5,1.8.8,2.9.8Z"/>
  <path class="st3" d="M103.6,29.6c1.1,0,2.1-.2,2.9-.7.8-.5,1.5-1.2,2-2.1.5-.9.7-1.9.7-3s-.2-2.1-.7-3c-.5-.9-1.1-1.6-2-2.1-.8-.5-1.8-.7-2.9-.7s-2.1.2-2.9.7c-.8.5-1.5,1.2-2,2.1-.5.9-.7,1.9-.7,3s.2,2.1.7,3c.5.9,1.1,1.6,2,2.1.8.5,1.8.7,2.9.7ZM103.6,27c-.9,0-1.5-.3-2-.9-.4-.6-.7-1.4-.7-2.4s.2-1.7.6-2.3c.4-.6,1.1-.9,2-.9s1.5.3,2,.9c.5.6.7,1.4.7,2.4s-.2,1.7-.7,2.3c-.4.6-1.1.9-2,.9Z"/>
  <path class="st3" d="M111.5,29.3h2.8v-5.6c0-.7,0-1.2.2-1.7.2-.4.4-.7.6-.9.2-.2.5-.4.8-.4.3,0,.5-.1.8-.1.6,0,1.1.1,1.4.4.3.3.6.6.7,1,.1.4.2.8.3,1.2,0,.4,0,.7,0,1v5.2h2.8v-6.2c0-.2,0-.5,0-.9,0-.4-.1-.8-.2-1.3-.1-.5-.3-1-.7-1.4-.3-.5-.7-.8-1.3-1.1-.5-.3-1.3-.4-2.1-.4s-1.5.1-2.1.4c-.6.3-1.1.6-1.5,1.1v-1.1h-2.5v11.1Z"/>
  <path class="st12" d="M10.2,22l-6.1-9.7L23,0l-.5,10.7-12.3,11.3Z"/>
  <path class="st6" d="M22.5,10.7L23,0l19.4,8.7-4.1,17.4-26.1,4.1-2-8.2,12.3-11.3Z"/>
  <path class="st0" d="M31.2,44l-18.9-13.8,26.1-4.1,4.6,4.6-11.7,13.3Z"/>
  <path class="st10" d="M38.3,26.1l4.6,4.6,4.1-12.8-4.6-9.2-4.1,17.4Z"/>
  <path class="st8" d="M12.3,30.2l18.9,13.8-18.9-2.6L0,26.6l12.3,3.6Z"/>
  <path class="st9" d="M4.1,12.3L0,26.6l12.3,3.6-2-8.2-6.1-9.7Z"/>
  <path class="st7" d="M31.2,44l-18.9-13.8,26.1-4.1,4.6,4.6-11.7,13.3Z"/>
  <path class="st11" d="M38.3,26.1l4.6,4.6,4.1-12.8-4.6-9.2-4.1,17.4Z"/>
  <path class="st1" d="M12.3,30.2l18.9,13.8-18.9-2.6L0,26.6l12.3,3.6Z"/>
  <path class="st5" d="M4.1,12.3L0,26.6l12.3,3.6-2-8.2-6.1-9.7Z"/>
  <path class="st2" d="M10.2,22l-6.1-9.7L23,0l-.5,10.7-12.3,11.3Z"/>
  <path class="st4" d="M10.2,22l12.3-11.3L23,0,4.1,12.3l6.1,9.7ZM10.3,21.5l11.9-10.9.5-10L4.5,12.4l5.8,9.2Z"/>
  <path class="st4" d="M22.8,10.9l-12.2,11.2,1.9,7.7,25.6-4,4-16.9L23.3.5l-.5,10.4ZM22.5,10.7l-12.3,11.3,2,8.2,26.1-4.1,4.1-17.4L23,0l-.5,10.7Z"/>
  <path class="st4" d="M31.1,43.6l11.4-12.9-4.3-4.3-25.2,4,18.1,13.2ZM31.2,44l11.7-13.3-4.6-4.6-26.1,4.1,18.9,13.8Z"/>
  <path class="st4" d="M42.9,30.7l4.1-12.8-4.6-9.2-4.1,17.4,4.6,4.6ZM38.7,26l4.1,4.1,3.9-12.2-4.2-8.3-3.9,16.4Z"/>
  <path class="st4" d="M12.1,30.5L.9,27.2l11.5,14,17.6,2.4-17.9-13.1ZM12.3,30.2L0,26.6l12.3,14.8,18.9,2.6-18.9-13.8Z"/>
  <path class="st4" d="M.4,26.4l11.5,3.3-1.9-7.6-5.7-9.1L.4,26.4ZM0,26.6l12.3,3.6-2-8.2-6.1-9.7L0,26.6Z"/>
  <path class="st3" d="M23.7,19h3.5c0-3.1-2.6-5.2-6.4-5.2s-6.5,2.1-6.5,5.2c0,2.5,1.8,4,4.7,4.7l1.9.5c1.9.5,2.9,1,2.9,2.1,0,1.3-1.2,2.1-3,2.1s-3.2-.9-3.4-2.6h-3.5c0,3.7,2.7,5.6,6.9,5.6s6.6-2,6.6-5.1c0-2.9-2.2-4.4-5.1-5l-1.5-.4c-1.5-.3-2.7-.9-2.7-2.1,0-1.1,1-1.9,2.7-1.9s2.8.8,2.9,2.1Z"/>
  <path class="st3" d="M32.6,19.3h-3.2v11.9h3.2v-11.9Z"/>
  <path class="st3" d="M31.3,9.9h-1.2l-1.5.9v1.1l1.4-.9h0v4.8h1.3v-6Z"/>
  <path class="st3" d="M32.7,14.8h2.9v1h1.2v-1h.7v-1h-.7v-3.9h-1.6l-2.5,3.9v1ZM35.6,13.8h-1.6s1.6-2.5,1.6-2.5h0v2.5Z"/>
</svg>