<?xml version="1.0" encoding="UTF-8"?>
<svg id="uuid-e2c5f965-6387-4539-b17b-b6f9d723d62f" data-name="Layer 2" xmlns="http://www.w3.org/2000/svg" viewBox="0 0 99.5 25.05">
  <defs>
    <style>
      .uuid-bfdb5930-c3f6-498e-9652-064b290981c7 {
        fill: #fff;
      }
    </style>
  </defs>
  <g id="uuid-ae3c2b7c-4389-4913-b678-b2b4f4459f24" data-name="uuid-cf631cfc-8169-44a1-8c06-aa117e0549e5">
    <path class="uuid-bfdb5930-c3f6-498e-9652-064b290981c7" d="M14.79,11.86c-.03-2.75,2.25-4.09,2.36-4.15-1.29-1.88-3.29-2.14-3.99-2.16-1.68-.18-3.31,1-4.16,1s-2.19-.99-3.61-.96c-1.83.03-3.54,1.09-4.47,2.73-1.93,3.35-.49,8.27,1.36,10.98.93,1.33,2.01,2.81,3.43,2.75,1.39-.06,1.91-.88,3.58-.88s2.14.88,3.59.85c1.49-.02,2.43-1.33,3.32-2.67,1.07-1.52,1.5-3.02,1.52-3.09-.03-.01-2.89-1.1-2.92-4.4h-.01Z"/>
    <path class="uuid-bfdb5930-c3f6-498e-9652-064b290981c7" d="M12.06,3.77c.75-.93,1.26-2.2,1.11-3.49-1.08.05-2.43.75-3.21,1.66-.69.8-1.3,2.12-1.14,3.36,1.21.09,2.46-.61,3.24-1.53Z"/>
    <path class="uuid-bfdb5930-c3f6-498e-9652-064b290981c7" d="M32.32,18.7h-4.73l-1.14,3.36h-2l4.48-12.42h2.08l4.48,12.42h-2.04l-1.14-3.36h.01ZM28.08,17.15h3.75l-1.85-5.45h-.05s-1.85,5.45-1.85,5.45Z"/>
    <path class="uuid-bfdb5930-c3f6-498e-9652-064b290981c7" d="M45.18,17.53c0,2.81-1.51,4.62-3.78,4.62-1.29,0-2.31-.58-2.85-1.58h-.04v4.48h-1.86v-12.05h1.8v1.51h.03c.52-.97,1.62-1.6,2.88-1.6,2.3,0,3.81,1.82,3.81,4.62h0ZM43.27,17.53c0-1.83-.95-3.04-2.39-3.04s-2.38,1.23-2.38,3.04.96,3.05,2.38,3.05,2.39-1.2,2.39-3.05Z"/>
    <path class="uuid-bfdb5930-c3f6-498e-9652-064b290981c7" d="M55.14,17.53c0,2.81-1.51,4.62-3.78,4.62-1.29,0-2.31-.58-2.85-1.58h-.04v4.48h-1.86v-12.05h1.8v1.51h.03c.52-.97,1.62-1.6,2.88-1.6,2.3,0,3.81,1.82,3.81,4.62h.01ZM53.23,17.53c0-1.83-.95-3.04-2.39-3.04s-2.38,1.23-2.38,3.04.96,3.05,2.38,3.05,2.39-1.2,2.39-3.05Z"/>
    <path class="uuid-bfdb5930-c3f6-498e-9652-064b290981c7" d="M61.73,18.6c.14,1.23,1.33,2.04,2.97,2.04s2.69-.81,2.69-1.92c0-.96-.68-1.54-2.29-1.94l-1.61-.39c-2.28-.55-3.34-1.62-3.34-3.35,0-2.14,1.87-3.61,4.52-3.61s4.42,1.47,4.48,3.61h-1.88c-.11-1.24-1.14-1.99-2.63-1.99s-2.52.76-2.52,1.86c0,.88.65,1.39,2.25,1.79l1.37.34c2.55.6,3.61,1.63,3.61,3.44,0,2.32-1.85,3.78-4.79,3.78-2.75,0-4.61-1.42-4.73-3.67h1.9,0Z"/>
    <path class="uuid-bfdb5930-c3f6-498e-9652-064b290981c7" d="M73.37,10.86v2.14h1.72v1.47h-1.72v4.99c0,.78.34,1.14,1.1,1.14.19,0,.49-.03.61-.04v1.46c-.21.05-.62.09-1.03.09-1.83,0-2.55-.69-2.55-2.44v-5.19h-1.32v-1.47h1.32v-2.14h1.87Z"/>
    <path class="uuid-bfdb5930-c3f6-498e-9652-064b290981c7" d="M76.08,17.53c0-2.85,1.68-4.64,4.29-4.64s4.29,1.79,4.29,4.64-1.66,4.64-4.29,4.64-4.29-1.78-4.29-4.64ZM82.78,17.53c0-1.95-.9-3.11-2.4-3.11s-2.4,1.16-2.4,3.11.89,3.11,2.4,3.11,2.4-1.14,2.4-3.11Z"/>
    <path class="uuid-bfdb5930-c3f6-498e-9652-064b290981c7" d="M86.21,13h1.77v1.54h.04c.28-1.02,1.11-1.64,2.18-1.64.27,0,.49.04.64.07v1.74c-.15-.06-.47-.11-.83-.11-1.2,0-1.94.81-1.94,2.08v5.37h-1.86s0-9.05,0-9.05Z"/>
    <path class="uuid-bfdb5930-c3f6-498e-9652-064b290981c7" d="M99.4,19.4c-.25,1.64-1.85,2.77-3.9,2.77-2.63,0-4.27-1.76-4.27-4.6s1.64-4.68,4.19-4.68,4.08,1.72,4.08,4.47v.64h-6.39v.11c0,1.55.97,2.56,2.44,2.56,1.03,0,1.84-.49,2.09-1.27,0,0,1.76,0,1.76,0ZM93.12,16.69h4.53c-.04-1.39-.93-2.3-2.22-2.3s-2.21.93-2.31,2.3Z"/>
    <path class="uuid-bfdb5930-c3f6-498e-9652-064b290981c7" d="M27.85.29c1.77,0,2.81,1.09,2.81,2.96s-1.03,3-2.81,3h-2.16V.28h2.16ZM26.62,5.41h1.12c1.25,0,1.97-.78,1.97-2.15s-.73-2.13-1.97-2.13h-1.12v4.28Z"/>
    <path class="uuid-bfdb5930-c3f6-498e-9652-064b290981c7" d="M31.7,4c0-1.45.81-2.34,2.12-2.34s2.12.88,2.12,2.34-.81,2.34-2.12,2.34-2.12-.88-2.12-2.34ZM35.03,4c0-.98-.44-1.55-1.21-1.55s-1.21.57-1.21,1.55.43,1.55,1.21,1.55,1.21-.57,1.21-1.55Z"/>
    <path class="uuid-bfdb5930-c3f6-498e-9652-064b290981c7" d="M41.59,6.26h-.92l-.93-3.32h-.07l-.93,3.32h-.91l-1.24-4.5h.9l.81,3.44h.07l.93-3.44h.85l.93,3.44h.07l.8-3.44h.89l-1.24,4.5h0Z"/>
    <path class="uuid-bfdb5930-c3f6-498e-9652-064b290981c7" d="M43.87,1.75h.86v.72h.07c.22-.5.67-.8,1.34-.8,1,0,1.56.6,1.56,1.67v2.92h-.89v-2.69c0-.72-.31-1.08-.97-1.08s-1.08.44-1.08,1.14v2.63h-.89V1.76h0Z"/>
    <path class="uuid-bfdb5930-c3f6-498e-9652-064b290981c7" d="M49.11,0h.89v6.26h-.89V0Z"/>
    <path class="uuid-bfdb5930-c3f6-498e-9652-064b290981c7" d="M51.24,4c0-1.45.81-2.34,2.12-2.34s2.12.88,2.12,2.34-.81,2.34-2.12,2.34-2.12-.88-2.12-2.34ZM54.57,4c0-.98-.44-1.55-1.21-1.55s-1.21.57-1.21,1.55.43,1.55,1.21,1.55,1.21-.57,1.21-1.55Z"/>
    <path class="uuid-bfdb5930-c3f6-498e-9652-064b290981c7" d="M56.42,4.98c0-.81.6-1.28,1.67-1.34l1.22-.07v-.39c0-.48-.31-.74-.92-.74-.5,0-.84.18-.94.5h-.86c.09-.77.82-1.27,1.84-1.27,1.13,0,1.77.56,1.77,1.51v3.08h-.86v-.63h-.07c-.27.45-.76.71-1.35.71-.87,0-1.5-.52-1.5-1.35h0ZM59.32,4.6v-.38l-1.1.07c-.62.04-.9.25-.9.65s.35.64.83.64c.67,0,1.17-.43,1.17-.98Z"/>
    <path class="uuid-bfdb5930-c3f6-498e-9652-064b290981c7" d="M61.37,4c0-1.42.73-2.32,1.87-2.32.62,0,1.14.29,1.38.79h.07V0h.89v6.26h-.85v-.71h-.07c-.27.49-.79.79-1.41.79-1.15,0-1.87-.9-1.87-2.33h0ZM62.29,4c0,.96.45,1.53,1.2,1.53s1.21-.58,1.21-1.53-.47-1.53-1.21-1.53-1.2.58-1.2,1.53Z"/>
    <path class="uuid-bfdb5930-c3f6-498e-9652-064b290981c7" d="M69.25,4c0-1.45.81-2.34,2.12-2.34s2.12.88,2.12,2.34-.81,2.34-2.12,2.34-2.12-.88-2.12-2.34ZM72.58,4c0-.98-.44-1.55-1.21-1.55s-1.21.57-1.21,1.55.43,1.55,1.21,1.55,1.21-.57,1.21-1.55Z"/>
    <path class="uuid-bfdb5930-c3f6-498e-9652-064b290981c7" d="M74.69,1.75h.86v.72h.07c.22-.5.67-.8,1.34-.8,1,0,1.56.6,1.56,1.67v2.92h-.89v-2.69c0-.72-.31-1.08-.97-1.08s-1.08.44-1.08,1.14v2.63h-.89V1.76h0Z"/>
    <path class="uuid-bfdb5930-c3f6-498e-9652-064b290981c7" d="M83.54.63v1.14h.98v.75h-.98v2.32c0,.47.19.68.64.68.14,0,.21,0,.34-.02v.74c-.14.02-.31.05-.48.05-.99,0-1.38-.35-1.38-1.22v-2.54h-.71v-.75h.71V.64h.89,0Z"/>
    <path class="uuid-bfdb5930-c3f6-498e-9652-064b290981c7" d="M85.72,0h.88v2.48h.07c.22-.5.69-.81,1.37-.81.96,0,1.55.61,1.55,1.68v2.91h-.89v-2.69c0-.72-.33-1.08-.96-1.08-.73,0-1.13.46-1.13,1.14v2.63h-.89s0-6.26,0-6.26Z"/>
    <path class="uuid-bfdb5930-c3f6-498e-9652-064b290981c7" d="M94.78,5.04c-.2.81-.92,1.3-1.95,1.3-1.29,0-2.08-.88-2.08-2.32s.81-2.35,2.08-2.35,2.01.86,2.01,2.27v.31h-3.18v.05c.03.79.49,1.29,1.2,1.29.54,0,.91-.19,1.07-.55h.86-.01ZM91.66,3.59h2.27c-.02-.71-.45-1.17-1.11-1.17s-1.12.46-1.17,1.17h.01Z"/>
  </g>
</svg>