<?xml version="1.0" encoding="UTF-8"?>
<svg id="Layer_1" xmlns="http://www.w3.org/2000/svg" version="1.1" viewBox="0 0 115.8 27.3">
  <!-- Generator: Adobe Illustrator 29.8.1, SVG Export Plug-In . SVG Version: 2.1.1 Build 2)  -->
  <defs>
    <style>
      .st0 {
        fill: #fbbd05;
      }

      .st1 {
        fill: #e94434;
      }

      .st2 {
        stroke: #fff;
        stroke-miterlimit: 10;
        stroke-width: .2px;
      }

      .st3 {
        fill: #5280bd;
      }

      .st4 {
        fill: #36a954;
      }
    </style>
  </defs>
  <g id="Text">
    <path class="st2" d="M37.5,3.5c0,.8-.2,1.5-.8,2-.6.6-1.3.9-2.2.9s-1.6-.3-2.2-.9-.9-1.3-.9-2.2.3-1.6.9-2.2c.6-.6,1.3-.9,2.2-.9s.8,0,1.2.2.7.4.9.7l-.5.5c-.4-.5-.9-.7-1.6-.7s-1.2.2-1.6.7c-.5.4-.7,1-.7,1.7s.2,1.3.7,1.7,1,.7,1.6.7,1.2-.2,1.7-.7c.3-.3.5-.7.5-1.2h-2.2v-.7h2.9v.5h0Z"/>
    <path class="st2" d="M42.1,1h-2.7v1.9h2.5v.7h-2.5v1.9h2.7v.7h-3.5V.2h3.5v.7h0Z"/>
    <path class="st2" d="M45.3,6.2h-.8V1h-1.7V.2h4.1v.7h-1.7v5.3h.1Z"/>
    <path class="st2" d="M50,6.2V.2h.8v6h-.8Z"/>
    <path class="st2" d="M54.2,6.2h-.8V1h-1.7V.2h4.1v.7h-1.7v5.3h.1Z"/>
    <path class="st2" d="M63.6,5.4c-.6.6-1.3.9-2.2.9s-1.6-.3-2.2-.9-.9-1.3-.9-2.2.3-1.6.9-2.2c.6-.6,1.3-.9,2.2-.9s1.6.3,2.2.9c.6.6.9,1.3.9,2.2s-.3,1.6-.9,2.2h0ZM59.8,4.9c.4.4,1,.7,1.6.7s1.2-.2,1.6-.7c.4-.4.7-1,.7-1.7s-.2-1.3-.7-1.7c-.4-.5-1-.7-1.6-.7s-1.2.2-1.6.7c-.4.5-.7,1-.7,1.7s.2,1.3.7,1.7Z"/>
    <path class="st2" d="M65.6,6.2V.2h.9l2.9,4.7h0V.2h.8v6h-.8l-3.1-4.9h0v4.9h-.8,0Z"/>
    <path d="M58.2,15c-2.3,0-4.3,1.8-4.3,4.2s1.9,4.2,4.3,4.2,4.3-1.8,4.3-4.2-1.9-4.2-4.3-4.2ZM58.2,21.8c-1.3,0-2.4-1.1-2.4-2.6s1.1-2.6,2.4-2.6,2.4,1,2.4,2.6-1.1,2.6-2.4,2.6ZM48.8,15c-2.3,0-4.3,1.8-4.3,4.2s1.9,4.2,4.3,4.2,4.3-1.8,4.3-4.2-1.9-4.2-4.3-4.2ZM48.8,21.8c-1.3,0-2.4-1.1-2.4-2.6s1.1-2.6,2.4-2.6,2.4,1,2.4,2.6-1.1,2.6-2.4,2.6ZM37.8,16.3v1.8h4.3c0,1-.5,1.8-1,2.3-.6.6-1.6,1.3-3.3,1.3-2.7,0-4.7-2.1-4.7-4.8s2.1-4.8,4.7-4.8,2.5.6,3.2,1.3l1.3-1.3c-1.1-1-2.5-1.8-4.5-1.8-3.6,0-6.7,3-6.7,6.6s3.1,6.6,6.7,6.6,3.5-.6,4.6-1.9c1.2-1.2,1.6-2.9,1.6-4.2s0-.8,0-1.1h-6.2ZM83.1,17.7c-.3-1-1.4-2.7-3.6-2.7s-4,1.7-4,4.2,1.8,4.2,4.2,4.2,3.1-1.2,3.5-1.9l-1.4-1c-.5.7-1.1,1.2-2.1,1.2s-1.6-.4-2.1-1.3l5.7-2.4-.2-.5h0v.2ZM77.3,19.1c0-1.6,1.3-2.5,2.2-2.5s1.4.4,1.6.9c0,0-3.8,1.6-3.8,1.6ZM72.7,23.2h1.9v-12.5h-1.9v12.5ZM69.6,15.9h0c-.4-.5-1.2-.9-2.2-.9-2.1,0-4.1,1.9-4.1,4.3s1.9,4.2,4.1,4.2,1.8-.5,2.2-1h0v.6c0,1.6-.9,2.5-2.3,2.5s-1.8-.8-2.1-1.5l-1.6.7c.5,1.1,1.7,2.5,3.8,2.5s4-1.3,4-4.4v-7.6h-1.8v.7h0ZM67.4,21.8c-1.3,0-2.4-1.1-2.4-2.6s1.1-2.6,2.4-2.6,2.3,1.1,2.3,2.6-1,2.6-2.3,2.6ZM91.8,10.7h-4.5v12.5h1.9v-4.7h2.6c2.1,0,4.1-1.5,4.1-3.9s-2-3.9-4.1-3.9h0ZM91.9,16.8h-2.7v-4.3h2.7c1.4,0,2.2,1.2,2.2,2.1s-.8,2.1-2.2,2.1h0ZM103.4,15c-1.3,0-2.8.6-3.3,1.9l1.7.7c.3-.7,1-.9,1.7-.9s1.9.6,2,1.6h0c-.3,0-1.1-.4-1.9-.4-1.8,0-3.6,1-3.6,2.8s1.5,2.8,3.1,2.8,1.9-.6,2.4-1.2h0v1h1.8v-4.8c0-2.2-1.7-3.5-3.8-3.5h0ZM103.2,21.8c-.6,0-1.5-.3-1.5-1.1s1.1-1.3,2-1.3,1.2.2,1.7.4c0,1.2-1.1,2-2.2,2h0ZM113.8,15.2l-2.1,5.4h0l-2.2-5.4h-2l3.3,7.6-1.9,4.2h1.9l5.1-11.8h-2.1ZM97,23.2h1.9v-12.5h-1.9v12.5Z"/>
  </g>
  <g id="Logo">
    <path class="st1" d="M10.8,12.6L.1,24H.1c.3,1.2,1.5,2.1,2.8,2.1s1-.1,1.5-.4h0l12-6.9-5.6-6.1h0Z"/>
    <path class="st0" d="M21.5,10.7h0l-5.2-3-5.8,5.2,5.9,5.9,5.1-3c.9-.5,1.5-1.4,1.5-2.5s-.6-2-1.5-2.5h0Z"/>
    <path class="st3" d="M.1,2.5c0,.2-.1.5-.1.7v20c0,.3,0,.5.1.7l11-11L.1,2.5Z"/>
    <path class="st4" d="M10.8,13.2l5.5-5.5L4.4.8c-.4-.3-.9-.4-1.5-.4C1.6.4.5,1.3.1,2.5h0l10.7,10.7h0Z"/>
  </g>
</svg>